<svg width="275" height="46" viewBox="0 0 275 46" fill="none" xmlns="http://www.w3.org/2000/svg">
<path d="M241.27 36.0064L253.34 34.8792C253.837 36.3031 254.535 37.3215 255.431 37.9346C256.327 38.5476 257.522 38.8542 259.016 38.8542C260.649 38.8542 261.914 38.5081 262.81 37.8159C263.507 37.3018 263.856 36.659 263.856 35.8878C263.856 35.0176 263.398 34.3453 262.482 33.8706C261.824 33.5344 260.082 33.1192 257.253 32.6248C253.031 31.893 250.093 31.2207 248.44 30.6076C246.807 29.9748 245.422 28.9168 244.287 27.4336C243.172 25.9504 242.614 24.2596 242.614 22.3611C242.614 20.2846 243.221 18.4949 244.436 16.9919C245.651 15.489 247.324 14.3716 249.456 13.6399C251.587 12.8884 254.445 12.5127 258.03 12.5127C261.814 12.5127 264.603 12.7994 266.395 13.3729C268.208 13.9464 269.712 14.8364 270.907 16.0427C272.122 17.249 273.128 18.8805 273.924 20.9372L262.392 22.0644C262.093 21.0559 261.595 20.3143 260.898 19.8397C259.942 19.2068 258.787 18.8904 257.433 18.8904C256.058 18.8904 255.052 19.1376 254.415 19.632C253.798 20.1066 253.489 20.69 253.489 21.3822C253.489 22.1534 253.887 22.7368 254.684 23.1323C255.481 23.5279 257.214 23.8838 259.882 24.2002C263.926 24.6551 266.933 25.2879 268.905 26.0987C270.877 26.9095 272.381 28.0664 273.416 29.5694C274.472 31.0723 275 32.7236 275 34.5232C275 36.3426 274.442 38.1126 273.327 39.8331C272.231 41.5536 270.489 42.928 268.098 43.9563C265.728 44.9649 262.492 45.4692 258.389 45.4692C252.593 45.4692 248.46 44.6485 245.99 43.0071C243.54 41.3657 241.967 39.0321 241.27 36.0064Z" fill="#E50914"/>
<path d="M235.123 44.7295H223.77V39.6274C222.077 41.7236 220.364 43.2167 218.632 44.1066C216.919 44.9965 214.807 45.4415 212.298 45.4415C208.952 45.4415 206.323 44.4527 204.411 42.4751C202.518 40.4777 201.572 37.4125 201.572 33.2793V13.2266H213.792V30.5502C213.792 32.5278 214.16 33.9319 214.897 34.7625C215.634 35.5931 216.67 36.0084 218.004 36.0084C219.458 36.0084 220.643 35.4546 221.56 34.3472C222.496 33.2397 222.964 31.2523 222.964 28.3848V13.2266H235.123V44.7295Z" fill="#E50914"/>
<path d="M153.987 1.24072H179.322C183.545 1.24072 186.782 2.27896 189.032 4.35542C191.303 6.43189 192.438 9.00275 192.438 12.068C192.438 14.6389 191.631 16.8439 190.018 18.683C188.943 19.9091 187.369 20.8782 185.298 21.5901C188.445 22.3416 190.755 23.6369 192.229 25.4761C193.723 27.2954 194.47 29.5894 194.47 32.3581C194.47 34.6125 193.942 36.6395 192.886 38.4391C191.831 40.2387 190.387 41.6626 188.554 42.7107C187.419 43.3633 185.706 43.8379 183.415 44.1346C180.368 44.5301 178.346 44.7279 177.351 44.7279H153.987V1.24072ZM167.641 18.2974H173.526C175.638 18.2974 177.102 17.9414 177.918 17.2295C178.755 16.4978 179.173 15.4497 179.173 14.0852C179.173 12.8195 178.755 11.8307 177.918 11.1188C177.102 10.4068 175.668 10.0509 173.616 10.0509H167.641V18.2974ZM167.641 35.3838H174.542C176.873 35.3838 178.516 34.9784 179.472 34.1675C180.428 33.337 180.906 32.2295 180.906 30.8452C180.906 29.5598 180.428 28.5314 179.472 27.7602C178.536 26.9691 176.882 26.5736 174.512 26.5736H167.641V35.3838Z" fill="#E50914"/>
<path d="M91.1357 13.2246H102.489V17.8225C104.122 15.9043 105.765 14.5397 107.418 13.7289C109.091 12.9181 111.103 12.5127 113.453 12.5127C115.983 12.5127 117.985 12.9577 119.458 13.8476C120.932 14.7375 122.137 16.0625 123.073 17.8225C124.986 15.7658 126.728 14.3716 128.302 13.6399C129.875 12.8884 131.817 12.5127 134.128 12.5127C137.534 12.5127 140.193 13.5213 142.105 15.5384C144.017 17.5358 144.973 20.6702 144.973 24.9418V44.7276H132.783V26.781C132.783 25.3571 132.504 24.2991 131.947 23.607C131.13 22.5193 130.114 21.9755 128.899 21.9755C127.465 21.9755 126.31 22.4896 125.434 23.518C124.557 24.5463 124.119 26.1976 124.119 28.4718V44.7276H111.93V27.3743C111.93 25.99 111.85 25.0506 111.691 24.5562C111.432 23.7652 110.984 23.1323 110.346 22.6577C109.709 22.1633 108.962 21.9161 108.105 21.9161C106.711 21.9161 105.566 22.4402 104.67 23.4883C103.773 24.5364 103.325 26.2569 103.325 28.6498V44.7276H91.1357V13.2246Z" fill="black"/>
<path d="M47.8223 29.0651C47.8223 24.2596 49.4555 20.3044 52.722 17.1996C55.9885 14.075 60.4002 12.5127 65.9572 12.5127C72.3109 12.5127 77.111 14.342 80.3575 18.0005C82.9667 20.9471 84.2713 24.576 84.2713 28.8871C84.2713 33.7322 82.6481 37.7072 79.4015 40.812C76.1749 43.897 71.7034 45.4395 65.987 45.4395C60.8882 45.4395 56.7652 44.1541 53.6183 41.5832C49.7543 38.3993 47.8223 34.2266 47.8223 29.0651ZM60.0118 29.0354C60.0118 31.8436 60.5794 33.9201 61.7147 35.2648C62.87 36.6096 64.314 37.282 66.0468 37.282C67.7995 37.282 69.2336 36.6195 70.349 35.2945C71.4843 33.9695 72.0519 31.8436 72.0519 28.9168C72.0519 26.1877 71.4843 24.1607 70.349 22.8357C69.2137 21.4909 67.8095 20.8186 66.1364 20.8186C64.3638 20.8186 62.8998 21.5008 61.7446 22.8654C60.5894 24.2101 60.0118 26.2668 60.0118 29.0354Z" fill="black"/>
<path d="M30.7427 26.9601L42.6036 30.5198C41.8069 33.8223 40.5521 36.5811 38.8392 38.796C37.1263 41.0109 34.9951 42.6819 32.4456 43.8092C29.9161 44.9364 26.6895 45.5 22.7657 45.5C18.0054 45.5 14.1116 44.8177 11.0841 43.4532C8.07656 42.0689 5.47732 39.6463 3.28639 36.1856C1.09546 32.7248 0 28.295 0 22.8962C0 15.6978 1.92204 10.1704 5.76612 6.31411C9.63012 2.43804 15.0875 0.5 22.1383 0.5C27.6555 0.5 31.9875 1.60745 35.1345 3.82235C38.3014 6.03724 40.6517 9.43869 42.1853 14.0267L30.2348 16.6668C29.8165 15.3418 29.3783 14.3728 28.9202 13.7597C28.1634 12.7314 27.2372 11.9403 26.1417 11.3866C25.0463 10.8329 23.8214 10.556 22.467 10.556C19.3997 10.556 17.0494 11.7821 15.4162 14.2343C14.1813 16.0537 13.5638 18.9113 13.5638 22.8072C13.5638 27.6325 14.3008 30.945 15.7747 32.7446C17.2486 34.5244 19.32 35.4143 21.9889 35.4143C24.5782 35.4143 26.5301 34.6925 27.8447 33.2488C29.1792 31.8052 30.1452 29.709 30.7427 26.9601Z" fill="black"/>
</svg>
